<svg version="1" xmlns="http://www.w3.org/2000/svg" width="933.333" height="933.333" viewBox="0 0 700.000000 700.000000"><path d="M113.5 132.5c-26.1 5.7-50.6 27-58.3 50.5-1.2 3.6-2.4 8.3-2.7 10.5-.4 2.2-1.5 8.7-2.5 14.5-1.1 5.8-2.2 13.2-2.5 16.5-.3 3.3-.8 6.9-1 8-.5 2.3-1.2 9.8-2 20-.3 3.8-.8 9.2-1 12-.6 6.4-.7 57.3-.1 60 .2 1.1.7 6.3 1.1 11.5.5 8.1 2.2 23.6 4 37 .2 1.9 1.6 9.8 3 17.5 4 21.7 8.8 31.5 21.6 44.4 7.7 7.6 19.8 15.7 27.2 18.1 2.9.9 4.2 2.1 5.4 4.8 4.4 10 5.6 12.2 8.8 16.8 8 11.2 23.4 23.9 34.1 28 4.1 1.6 4.2 1.7 6.4 10.2 1.3 4.7 3.6 10.8 5.1 13.5 1.6 2.6 2.9 5 2.9 5.4 0 2.7 14.6 17.5 23 23.2 10.8 7.5 18.8 10.8 31.5 13.1 2.9.5 81.3.8 186 .7l181-.2 7.5-2.4c16.5-5.2 31.5-15.5 42.3-29.2 4.2-5.2 11.2-19.6 12.1-24.9.3-1.9.8-4.6 1.1-6 .6-3.2 3.5-19.7 4-23 2.6-17.6 3.1-22.4 4-36 .4-5.2.8-11.1 1.1-13 .5-4.8.5-50.1 0-57-.3-3-.7-9.6-1.1-14.5-.6-9-1.2-14.8-2-19.5-.2-1.4-.7-5-1-8-.5-4.6-2.4-16.3-5-31.5-1.9-10.6-8.3-24.5-14.8-32.2-7.9-9.4-19.2-18-29.7-22.9l-5.5-2.5-1.7-7c-3-12.3-8.9-22.8-18.1-32.2-8.8-8.9-18.4-15.5-27.9-19.1-4.1-1.6-4.9-2.4-6.8-7-10.1-24.5-34.8-44.4-60.1-48.5-10.3-1.7-361.6-1.3-369.4.4zM483 153.6c8.4 1.9 19 7.6 25.8 13.8 5.1 4.7 11.2 12 11.2 13.5 0 .4-78 .7-173.2.7-95.3 0-175.5.3-178.3.7-15.8 2.1-31.5 10.1-44.6 22.8-12.4 12.1-18.7 24.5-21.4 41.9-.3 1.9-.8 4.2-1 5-.2.8-.7 3.5-1 6-.4 2.4-.8 4.7-1 5-.1.3-.6 3.6-1 7.5-.4 3.8-.8 7.2-1 7.5-.2.3-.6 4.1-1 8.5s-.9 8.8-1.1 9.8c-1.7 9.1-2.5 63.7-1.1 81.7 1.5 20.1 2.2 26.4 3.3 33.2.2 1.5.6 4.9.9 7.5.3 2.7.7 6 1.1 7.5.3 1.6.2 2.8-.2 2.8-1.2 0-10.8-7.7-13.9-11.2-4-4.4-9.3-13.4-10.5-17.8-.9-2.9-2.9-13.8-5.5-29.1-.6-3.3-1.3-9-2.1-15.7-.3-2.9-.7-6.1-.9-7-.3-1.7-1.4-15.1-2.1-26.7-.5-8.4-.5-41.2 0-52 .8-17.7 3.3-40.8 6.1-56.5.1-.8.6-3.5 1-6 2.1-13 3.5-17.9 6.8-24.5 1.8-3.7 5.7-8.7 10.1-13 9.2-9.2 19-14.3 32.1-16.8 1.1-.2 81.7-.4 179.1-.5 152-.1 178.1.1 183.4 1.4zm47.9 49.8c18.2 3.6 37 18.8 42.4 34.1l1.4 4-176.6.1c-97.1 0-178.7.3-181.3.7-13.4 2-32.2 12.1-43 23.3-13.5 13.9-18 23.3-21.8 46.4-2.6 15.7-2.8 16.5-3.5 22-.3 2.5-.7 6.1-1 8-.3 1.9-.7 6.4-1 10-.4 3.6-.8 7.6-1 9-1.5 9.7-2.1 52-1 70.5.9 15.9 1.2 19.3 4 44.2l.3 3.3-4.1-2.9c-10.6-7.3-19-20.5-21.1-33.1-.3-1.9-.8-4.6-1-6-.3-1.4-1-5.4-1.6-9-.5-3.6-1.2-7.6-1.4-9-.3-1.4-1-6.8-1.6-12-.6-5.2-1.3-10.9-1.5-12.5-3-23.2-2.5-79.5.9-106 .3-2.2.8-6.3 1.1-9 .7-5.8 1.9-13.3 3.2-20 .2-1.1.6-3.6.9-5.5 2.5-15.5 6.5-24.3 15.2-33.3 9.9-10.3 21.5-15.9 36.6-17.9 4.5-.6 353.4 0 356.5.6zM365.5 325.8c2.8 1.4 9.3 5 14.5 8 5.2 3 10.9 6.3 12.7 7.3 49.4 28 86.5 49.8 89.1 52.2 8.1 7.7 8 18.2-.3 25.5-5.3 4.6-115.7 67.9-121 69.3-9.1 2.5-16.7-.8-20.6-8.9l-2.3-4.7-.1-65.5c0-36 .3-67.7.7-70.4.9-6.1 4.9-12.3 9.1-14.2 4.7-2.1 12.4-1.5 18.2 1.4z"/></svg>