<?xml version="1.0" encoding="UTF-8" standalone="no"?><svg xmlns="http://www.w3.org/2000/svg" viewBox="0 -256 1850 1850" version="1.1" width="100%" height="100%"><g transform="matrix(1,0,0,-1,91.118644,1297.8644)"><path d="M 128,-128 H 416 V 160 H 128 v -288 z m 352,0 H 800 V 160 H 480 V -128 z M 128,224 H 416 V 544 H 128 V 224 z m 352,0 H 800 V 544 H 480 V 224 z M 128,608 H 416 V 896 H 128 V 608 z m 736,-736 h 320 V 160 H 864 V -128 z M 480,608 H 800 V 896 H 480 V 608 z m 768,-736 h 288 V 160 H 1248 V -128 z M 864,224 h 320 V 544 H 864 V 224 z m -352,864 v 288 q 0,13 -9.5,22.5 -9.5,9.5 -22.5,9.5 h -64 q -13,0 -22.5,-9.5 Q 384,1389 384,1376 v -288 q 0,-13 9.5,-22.5 9.5,-9.5 22.5,-9.5 h 64 q 13,0 22.5,9.5 9.5,9.5 9.5,22.5 z m 736,-864 h 288 V 544 H 1248 V 224 z M 864,608 h 320 V 896 H 864 V 608 z m 384,0 h 288 V 896 H 1248 V 608 z m 32,480 v 288 q 0,13 -9.5,22.5 -9.5,9.5 -22.5,9.5 h -64 q -13,0 -22.5,-9.5 -9.5,-9.5 -9.5,-22.5 v -288 q 0,-13 9.5,-22.5 9.5,-9.5 22.5,-9.5 h 64 q 13,0 22.5,9.5 9.5,9.5 9.5,22.5 z m 384,64 V -128 q 0,-52 -38,-90 -38,-38 -90,-38 H 128 q -52,0 -90,38 -38,38 -38,90 v 1280 q 0,52 38,90 38,38 90,38 h 128 v 96 q 0,66 47,113 47,47 113,47 h 64 q 66,0 113,-47 47,-47 47,-113 v -96 h 384 v 96 q 0,66 47,113 47,47 113,47 h 64 q 66,0 113,-47 47,-47 47,-113 v -96 h 128 q 52,0 90,-38 38,-38 38,-90 z" style="fill:#fff" /></g></svg>
