<?xml version="1.0" encoding="UTF-8"?><!DOCTYPE svg PUBLIC "-//W3C//DTD SVG 1.1//EN" "http://www.w3.org/Graphics/SVG/1.1/DTD/svg11.dtd"><svg xmlns="http://www.w3.org/2000/svg"><symbol id="calendar" viewBox="0 -256 1850 1850"><path d="M219.119 1425.864h288v-288h-288v288zm352 0h320v-288h-320v288zm-352-352h288v-320h-288v320zm352 0h320v-320h-320v320zm-352-384h288v-288h-288v288zm736 736h320v-288h-320v288zm-384-736h320v-288h-320v288zm768 736h288v-288h-288v288zm-384-352h320v-320h-320v320zm-352-864v-288q0-13-9.5-22.5t-22.5-9.5h-64q-13 0-22.5 9.5t-9.5 22.5v288q0 13 9.5 22.5t22.5 9.5h64q13 0 22.5-9.5t9.5-22.5zm736 864h288v-320h-288v320zm-384-384h320v-288h-320v288zm384 0h288v-288h-288v288zm32-480v-288q0-13-9.5-22.5t-22.5-9.5h-64q-13 0-22.5 9.5t-9.5 22.5v288q0 13 9.5 22.5t22.5 9.5h64q13 0 22.5-9.5t9.5-22.5zm384-64v1280q0 52-38 90t-90 38h-1408q-52 0-90-38t-38-90v-1280q0-52 38-90t90-38h128v-96q0-66 47-113t113-47h64q66 0 113 47t47 113v96h384v-96q0-66 47-113t113-47h64q66 0 113 47t47 113v96h128q52 0 90 38t38 90z" fill="#fff"/></symbol><symbol id="github" viewBox="0 0 16 16"><path fill="#fff" fill-rule="nonzero" d="M8 0a8 8 0 0 0-8 8 8 8 0 0 0 5.47 7.59c.4.075.547-.172.547-.385 0-.19-.007-.693-.01-1.36-2.226.483-2.695-1.073-2.695-1.073-.364-.924-.89-1.17-.89-1.17-.725-.496.056-.486.056-.486.803.056 1.225.824 1.225.824.714 1.223 1.873.87 2.33.665.072-.517.278-.87.507-1.07-1.777-.2-3.644-.888-3.644-3.953 0-.873.31-1.587.823-2.147-.083-.202-.358-1.015.077-2.117 0 0 .672-.215 2.2.82a7.68 7.68 0 0 1 2.003-.27c.68.004 1.364.092 2.003.27 1.527-1.035 2.198-.82 2.198-.82.437 1.102.163 1.915.08 2.117.513.56.823 1.274.823 2.147 0 3.073-1.87 3.75-3.653 3.947.287.246.543.735.543 1.48 0 1.07-.01 1.933-.01 2.195 0 .215.144.463.55.385A8 8 0 0 0 8 0"/></symbol><symbol id="plus" viewBox="0 0 1000 1000"><path fill="#fff" d="M905.3 407.7H584.1l.6-310.3c0-.3-.1-.4-.1-.7v-4.9h-.5C580.8 48 543.7 13 499.2 12.7c-44.5-.3-81.1 34.1-83.8 77.9h-.6l.1 317H93.5C47.1 407.3 9.7 445.5 10 492c.3 46.5 38.2 84.4 84.7 84.7l320.1-.3.1 326.2c.3 46.5 38.2 84.4 84.7 84.7 46.5.3 83.8-37.1 83.5-83.5l.6-327.5 322.8-.3c46.5.3 83.8-37.1 83.5-83.6-.3-46.5-38.2-84.4-84.7-84.7z"/></symbol><symbol id="star" viewBox="0 0 32 32"><path fill="#fff" d="M16 0l5 11 11 1-9 7 3 12-10-6-10 6 3-12-9-7 11-1"/></symbol><symbol id="svg"/><symbol id="tmdb" viewBox="0 0 160.02 174.22"><path fill="#fff" d="M134.38 158.96c15.29 0 25.63-10.34 25.63-25.63V25.63C160.01 10.34 149.67 0 134.38 0H25.63C10.34 0 0 10.34 0 25.63v148.58l13.13-15.25V25.63a12.5 12.5 0 0 1 12.48-12.48h108.75a12.5 12.5 0 0 1 12.48 12.48v107.7a12.5 12.5 0 0 1-12.48 12.48H43.13l-13.14 13.15-.08-.1"/><path fill="#fff" d="M56.68 83.23H44.36v41.36h12.32c27.53 0 27.53-41.36 0-41.36zm0 33.09h-4V91.5h4c16.08 0 16.08 24.81 0 24.81zM54.28 75.41h8.27V42.32h10.29v-8.21H43.98v8.21h10.3v33.09zM94.98 52.27L80.67 34.11h-2.66V76.1h8.39V53.02l8.58 11.11 8.59-11.11-.06 23.08h8.39V34.11h-2.61L94.98 52.27zM108.92 103.91c2.6-1.79 3.7-5 3.82-8.16.17-7.29-4.4-12.55-11.74-12.55H84.63v41.42H101a12.3 12.3 0 0 0 12.2-12.44 10 10 0 0 0-4.28-8.27zm-16-12.44h7.35c2.37 0 3.82 1.85 3.82 4.16a3.87 3.87 0 0 1-3.82 4.17h-7.35v-8.33zm7.35 24.87h-7.35v-8.27h7.35a4.06 4.06 0 0 1 4.16 4.11 4.11 4.11 0 0 1-4.12 4.16z"/></symbol><symbol id="youtube" viewBox="0 0 96 96"><path fill="#fff" d="M94.98 28.84s-.94-6.6-3.81-9.5c-3.64-3.81-7.72-3.83-9.59-4.05-13.4-.97-33.52-.85-33.52-.85s-20.12-.12-33.52.85c-1.87.22-5.95.24-9.59 4.05-2.87 2.9-3.81 9.5-3.81 9.5S.18 36.58 0 44.33v7.26c.18 7.75 1.14 15.49 1.14 15.49s.93 6.6 3.81 9.5c3.64 3.81 8.43 3.69 10.56 4.09 7.53.72 31.7.89 32.54.9.01 0 20.14.03 33.54-.94 1.87-.22 5.95-.24 9.59-4.05 2.87-2.9 3.81-9.5 3.81-9.5s.96-7.75 1.02-15.49v-7.26c-.07-7.75-1.03-15.49-1.03-15.49zm-56.7 32.57v-27l25.74 13.5-25.74 13.5z"/></symbol></svg>